<?xml version="1.0" encoding="iso-8859-1"?>
<!-- Generator: Adobe Illustrator 16.0.0, SVG Export Plug-In . SVG Version: 6.00 Build 0)  -->
<!DOCTYPE svg PUBLIC "-//W3C//DTD SVG 1.1//EN" "http://www.w3.org/Graphics/SVG/1.1/DTD/svg11.dtd">
<svg xmlns="http://www.w3.org/2000/svg" xmlns:xlink="http://www.w3.org/1999/xlink" version="1.1" id="Capa_1" x="0px" y="0px" width="512px" height="512px" viewBox="0 0 897.646 897.646" style="enable-background:new 0 0 897.646 897.646;" xml:space="preserve">
<g>
	<g>
		<path d="M758.295,678.473v-1.168c0-67.824-93.023-121.668-226.607-137.531V388.884c71.361-31.489,121.195-102.814,121.195-185.821    C652.883,90.909,561.957,0,449.782,0C337.633,0,246.718,90.909,246.718,203.063c0,83.015,49.838,154.344,121.197,185.833v150.635    c-131.879,15.225-224.688,67.371-228.493,133.553h-0.217l0.008,4.059c0,0.055-0.008,0.107-0.008,0.164h0.008l0.096,44.309    l0.342,37.607l0.047,1.252c5.609,78.201,138.46,137.172,309.028,137.172c176.485,0,309.569-61.193,309.569-142.338l0.016-4.73    C758.514,697.053,758.459,683.025,758.295,678.473 M308.53,150.745c-15.213-15.205-8.521-46.543,14.9-69.965    c23.441-23.444,54.756-30.115,69.962-14.894c15.22,15.2,8.533,46.516-14.909,69.963    C355.058,159.268,323.744,165.943,308.53,150.745 M449.784,406.124c14.345,0,28.337-1.507,41.835-4.335v267.5l-0.055,5.428    c-4.281,3.775-19.432,9.855-41.781,9.855c-22.35,0-37.488-6.09-41.749-9.865l-0.048-272.909    C421.482,404.621,435.456,406.124,449.784,406.124 M179.281,677.18c0.156-39.609,74.508-82.852,188.634-97.188v28.689    c-77.221,10.881-131.609,36.861-131.609,67.219c0,40.182,95.098,72.727,212.42,72.727c117.362,0,212.452-32.545,212.452-72.727    c0-30.078-53.379-55.873-129.49-66.93v-28.697c113.057,14.619,186.541,57.637,186.541,97.031v1.447l0.008,0.178    c-2.277,57.643-124.711,106.037-269.47,106.037c-145.564,0-268.585-48.949-269.481-107.033L179.281,677.18z M718.244,750.424    l-0.016,4.885c0,48.369-110.68,102.27-269.501,102.27c-73.192,0-142.079-11.754-193.959-33.1    c-45.006-18.516-72.999-43.268-75.057-66.322l-0.301-33.209c42.004,47.338,145.386,80.055,269.356,80.055    c124.148,0,227.65-32.797,269.556-80.232C718.307,732.088,718.283,740.574,718.244,750.424" fill="#d97b00"/>
	</g>
</g>
<g>
</g>
<g>
</g>
<g>
</g>
<g>
</g>
<g>
</g>
<g>
</g>
<g>
</g>
<g>
</g>
<g>
</g>
<g>
</g>
<g>
</g>
<g>
</g>
<g>
</g>
<g>
</g>
<g>
</g>
</svg>
