<svg version="1.1" id="Layer_1" xmlns="http://www.w3.org/2000/svg" xmlns:xlink="http://www.w3.org/1999/xlink" x="0px" y="0px"
	 width="144px" height="143.95px" viewBox="0 0 144 143.95" enable-background="new 0 0 144 143.95" xml:space="preserve">
<path id="7_path" fill="#151718" d="M95.27,46.278c-0.521,0-0.992,0.293-1.418,0.879c-0.424,0.588-0.635,1.402-0.635,2.445
	s0.357,1.939,1.076,2.689c0.717,0.75,1.629,1.386,2.738,1.907c1.104,0.522,2.312,0.913,3.615,1.174
	c1.307,0.261,2.545,0.392,3.719,0.391c0.391,0.001,0.75-0.212,1.074-0.636c0.325-0.424,0.487-1.223,0.487-2.396
	c0-0.978-0.354-1.858-1.075-2.641c-0.718-0.782-1.597-1.468-2.642-2.054c-1.043-0.586-2.199-1.027-3.472-1.32
	C97.467,46.423,96.312,46.278,95.27,46.278L95.27,46.278L95.27,46.278z M98.105,61.827c-1.104,0-2.246-0.113-3.422-0.342
	c-1.174-0.229-2.231-0.619-3.18-1.174c-0.945-0.555-1.727-1.304-2.346-2.25c-0.619-0.944-0.932-2.167-0.932-3.666
	c0-0.262,0.146-1.142,0.438-2.641c0.295-1.5,0.914-3.081,1.858-4.744c0.943-1.662,2.267-3.162,3.961-4.498
	c1.693-1.337,3.908-2.005,6.648-2.006c0.979,0.001,1.955,0.082,2.936,0.245c0.978,0.163,1.873,0.522,2.688,1.075
	c0.813,0.555,1.481,1.32,2.004,2.299s0.783,2.282,0.783,3.912s-0.164,3.26-0.49,4.891c-0.325,1.629-0.928,3.112-1.809,4.449
	c-0.882,1.336-2.056,2.412-3.521,3.227C102.262,61.42,100.389,61.827,98.105,61.827L98.105,61.827L98.105,61.827z M95.27,75.079
	c-0.521,0-0.992,0.324-1.418,0.978c-0.424,0.651-0.635,1.437-0.635,2.349c0,1.043,0.357,1.957,1.076,2.737
	c0.717,0.782,1.629,1.437,2.738,1.956c1.104,0.521,2.312,0.913,3.615,1.174c1.307,0.262,2.545,0.393,3.719,0.393
	c0.391,0,0.75-0.194,1.074-0.588c0.325-0.392,0.487-1.172,0.487-2.348c0-1.044-0.354-1.972-1.075-2.785
	c-0.718-0.814-1.597-1.518-2.642-2.104c-1.043-0.587-2.199-1.027-3.472-1.32C97.467,75.226,96.312,75.079,95.27,75.079L95.27,75.079
	L95.27,75.079z M98.105,90.823c-1.104,0-2.246-0.112-3.422-0.344c-1.174-0.229-2.231-0.636-3.18-1.223s-1.727-1.354-2.346-2.301
	c-0.619-0.942-0.932-2.135-0.932-3.567c0-0.325,0.146-1.224,0.438-2.688c0.295-1.467,0.914-3.03,1.858-4.693
	c0.943-1.662,2.267-3.162,3.961-4.498c1.693-1.336,3.908-2.005,6.648-2.005c0.979,0,1.955,0.08,2.936,0.242
	c0.978,0.164,1.873,0.508,2.688,1.027c0.813,0.522,1.481,1.288,2.004,2.299c0.521,1.01,0.783,2.33,0.783,3.961
	s-0.164,3.26-0.49,4.892c-0.325,1.63-0.928,3.112-1.809,4.448c-0.882,1.336-2.056,2.412-3.521,3.229
	C102.262,90.415,100.389,90.823,98.105,90.823L98.105,90.823L98.105,90.823z M78.254,38.552c-2.021-2.086-4.107-4.156-6.26-6.21
	c-2.153-2.054-4.172-4.124-6.063-6.21c-1.043-1.174-2.312-2.299-3.812-3.375c-1.5-1.075-3.101-2.037-4.796-2.885
	c-1.692-0.848-3.438-1.531-5.229-2.053s-3.471-0.783-5.034-0.783c-0.783,0-1.563,0.277-2.349,0.832
	c-0.783,0.554-1.174,1.223-1.174,2.004c0,0.652,0.293,1.305,0.881,1.957c0.586,0.651,1.303,1.222,2.147,1.711
	c0.851,0.488,1.763,0.896,2.738,1.223c0.977,0.327,1.859,0.488,2.641,0.488c0.521,0,1.076-0.195,1.662-0.586
	c0.588-0.392,1.045-0.588,1.369-0.588c0.262,0,0.396,0.131,0.396,0.392c0,0.913-0.521,2.347-1.564,4.304
	c-0.651,1.174-1.483,2.266-2.493,3.275c-1.013,1.012-2.168,1.516-3.474,1.516c-0.851,0-1.812-0.228-2.885-0.684
	c-1.076-0.457-2.104-1.043-3.08-1.761c-0.979-0.718-1.793-1.532-2.445-2.444c-0.652-0.913-0.979-1.826-0.979-2.739
	c0-1.173,0.325-2.722,0.979-4.646c0.652-1.923,1.531-3.813,2.642-5.671c1.109-1.858,2.396-3.456,3.863-4.792
	C47.4,9.49,48.98,8.822,50.675,8.822c0.849,0,1.843,0.033,2.984,0.098c1.141,0.065,2.278,0.195,3.422,0.391
	c1.141,0.196,2.217,0.505,3.228,0.929c1.012,0.424,1.875,1.027,2.592,1.809c1.694,1.891,3.018,3.798,3.963,5.722
	c0.942,1.923,2.035,4.025,3.274,6.307c0.65,1.305,1.519,2.641,2.593,4.01c1.073,1.37,2.116,2.689,3.131,3.961
	c1.01,1.271,1.875,2.396,2.592,3.375c0.717,0.978,1.076,1.694,1.076,2.15C79.527,38.225,79.102,38.552,78.254,38.552L78.254,38.552
	L78.254,38.552z M74.342,40.507c0.131,0.001,0.229,0.082,0.293,0.245c0.064,0.163,0.098,0.31,0.098,0.44
	c0,1.564-0.506,2.869-1.516,3.912c-1.012,1.043-2.152,1.874-3.424,2.494c-1.271,0.619-2.51,1.059-3.715,1.32
	c-1.207,0.26-2.037,0.391-2.494,0.391c-1.369,0-2.82,0.229-4.354,0.685c-1.535,0.456-2.787,0.978-3.767,1.564
	c-3.912,2.282-7.596,5.085-11.051,8.411h0.684c1.957,0,3.718,0.684,5.281,2.053c1.563,1.369,3.031,2.869,4.397,4.499
	c0.457-1.694,1.207-3.211,2.25-4.548c1.043-1.336,2.232-2.461,3.57-3.373c1.336-0.913,2.721-1.614,4.156-2.104
	c1.434-0.488,2.836-0.732,4.205-0.733c1.955,0.001,3.812,0.358,5.574,1.076c1.76,0.718,3.324,1.728,4.69,3.032
	c1.369,1.304,2.445,2.852,3.229,4.645c0.781,1.793,1.174,3.767,1.174,5.917c0,2.349-0.262,4.435-0.783,6.261
	c-0.521,1.824-1.236,3.504-2.15,5.035c-0.911,1.531-2.055,2.998-3.422,4.4c-1.369,1.4-2.869,2.853-4.498,4.352
	c0.65,0.326,1.353,0.815,2.103,1.469c0.75,0.65,1.5,1.388,2.25,2.199c0.75,0.814,1.449,1.662,2.103,2.545
	c0.651,0.879,1.271,1.711,1.858,2.492l1.662,2.348h2.25c0.649,0,1.092,0.1,1.319,0.293c0.229,0.195,0.343,0.357,0.343,0.488
	c0,0.195-0.082,0.407-0.244,0.637c-0.164,0.229-0.277,0.375-0.345,0.439l-0.979,1.467c0.521,0.326,0.979,0.979,1.369,1.955
	c0.393,0.979,0.586,1.826,0.586,2.543c0,1.307-0.355,2.625-1.076,3.961c-0.717,1.338-1.434,2.43-2.147,3.276l-0.979,0.979
	c1.695,0.393,3.195,1.174,4.5,2.349c1.305,1.174,2.379,2.493,3.229,3.961c0.848,1.467,1.479,2.967,1.905,4.498
	c0.424,1.53,0.638,2.885,0.638,4.059c0,0.132-0.101,0.293-0.293,0.489c-0.197,0.195-0.396,0.294-0.589,0.294
	c-0.194,0-0.637-0.49-1.319-1.467c-0.685-0.979-1.662-2.056-2.935-3.229c-1.271-1.173-2.887-2.248-4.844-3.227
	c-1.955-0.979-4.303-1.469-7.041-1.469c-1.5,0-2.641,0.229-3.422,0.686c-0.457,0.262-0.799,0.49-1.025,0.688
	c-0.229,0.194-0.407,0.293-0.537,0.293c-0.065,0-0.131-0.063-0.196-0.194c-0.063-0.131-0.099-0.229-0.099-0.293
	c0-0.783,0.214-1.614,0.638-2.494c0.424-0.881,1.043-1.729,1.854-2.543c0.814-0.813,1.795-1.517,2.937-2.104
	c1.141-0.586,2.43-0.943,3.862-1.076c0,0,0.064-0.129,0.193-0.393c0.066-0.062,0.131-0.16,0.195-0.293
	c0.326-0.521,0.719-1.174,1.174-1.955c0.457-0.781,0.688-1.5,0.688-2.15c0-0.781-0.312-1.385-0.932-1.811
	c-0.619-0.424-1.385-0.767-2.299-1.025c-0.912-0.262-1.922-0.424-3.031-0.487c-1.104-0.065-2.147-0.101-3.129-0.101
	c-1.76,0-3.438,0.229-5.037,0.687c-1.598,0.457-2.396,1.237-2.396,2.349c0,0.848,0.146,1.516,0.44,2.004
	c0.293,0.489,0.603,0.963,0.931,1.42c0.323,0.455,0.635,0.992,0.928,1.611c0.293,0.62,0.438,1.483,0.438,2.594
	c0,0.586-0.063,1.205-0.194,1.856s-0.521,1.237-1.172,1.76c-0.783,0.718-1.615,1.418-2.494,2.104
	c-0.881,0.686-1.484,1.027-1.813,1.027c-0.328,0-0.485-0.164-0.485-0.49c0-0.131,0.081-0.424,0.241-0.881
	c0.162-0.455,0.244-1.074,0.244-1.855c0-1.307-0.293-2.725-0.879-4.255c-0.588-1.531-0.881-2.95-0.881-4.255
	c0-1.237,0.424-2.592,1.271-4.059c0.848-1.468,1.904-2.837,3.179-4.107c1.272-1.271,2.642-2.348,4.106-3.229
	c1.468-0.879,2.854-1.317,4.154-1.317h6.262l-3.521-2.349c-2.086-1.436-4.304-2.575-6.647-3.424c-2.349-0.848-4.793-1.5-7.336-1.955
	c-2.543-0.457-5.117-0.75-7.728-0.881c-2.606-0.131-5.215-0.194-7.822-0.194c-0.522,0-0.993,0.113-1.418,0.342
	c-0.424,0.229-0.832,0.488-1.223,0.783c-0.396,0.293-0.75,0.555-1.076,0.78c-0.326,0.229-0.688,0.343-1.076,0.343
	c-0.194,0-0.293-0.193-0.293-0.587c0-0.194,0.195-0.554,0.586-1.075l4.892-7.334c0.521-0.718,1.094-1.238,1.713-1.563
	c0.617-0.326,1.256-0.489,1.906-0.49c1.692,0.001,3.504,0.131,5.43,0.396c1.922,0.26,3.779,0.603,5.572,1.023
	s3.438,0.945,4.938,1.562c1.5,0.619,2.674,1.287,3.521,2.006c2.217-2.411,3.828-4.646,4.84-6.698
	c1.012-2.056,1.518-4.417,1.518-7.09c0-1.5-0.326-2.888-0.979-4.156c-0.653-1.271-1.519-2.38-2.594-3.325
	c-1.074-0.945-2.313-1.695-3.718-2.249c-1.397-0.555-2.817-0.832-4.254-0.832c-2.151,0-3.862,0.213-5.135,0.637
	c-1.272,0.424-2.33,1.678-3.181,3.765c0.326,0.393,0.75,1.025,1.271,1.907c0.521,0.88,1.027,1.793,1.516,2.736
	c0.489,0.944,0.945,1.824,1.369,2.643c0.424,0.812,0.701,1.354,0.832,1.611c0.26,0.457,0.504,0.862,0.732,1.225
	c0.229,0.355,0.342,0.635,0.342,0.831c0,0.323-0.195,0.487-0.586,0.487c-0.652,0-1.271-0.312-1.857-0.931
	c-0.588-0.618-1.106-1.155-1.562-1.612c-1.174-1.106-2.316-2.231-3.424-3.375c-1.109-1.142-2.25-2.185-3.426-3.128
	c-1.172-0.944-2.396-1.728-3.666-2.349c-1.271-0.619-2.625-0.928-4.06-0.928c-1.5,0-2.854,0.098-4.06,0.293
	c-1.207,0.194-2.167,0.456-2.886,0.782c0.393-1.369,0.85-2.868,1.369-4.5c0.521-1.629,1.336-3.031,2.443-4.205
	c1.305-1.76,2.789-3.668,4.451-5.721c1.66-2.054,3.373-3.863,5.133-5.428h-5.084c-1.631,0-2.445-0.229-2.445-0.686
	c0-0.129,0.049-0.293,0.146-0.488c0.097-0.195,0.211-0.391,0.342-0.587l4.693-7.042L74.342,40.507L74.342,40.507z"/>
</svg>
