<?xml version="1.0" encoding="utf-8"?>
<!-- Christopher J. Fynn  -->
<!DOCTYPE svg PUBLIC "-//W3C//DTD SVG 1.0//EN" "http://www.w3.org/TR/2001/REC-SVG-20010904/DTD/svg10.dtd" [
	<!ENTITY ns_svg "http://www.w3.org/2000/svg">
	<!ENTITY ns_xlink "http://www.w3.org/1999/xlink">
]>
<svg  version="1.0"
	 id="Layer_1" sodipodi:version="0.32" inkscape:version="0.46" sodipodi:docname="om-mani-padme-hum_02bw.svg" inkscape:output_extension="org.inkscape.output.svg.inkscape" xmlns:rdf="http://www.w3.org/1999/02/22-rdf-syntax-ns#" xmlns:sodipodi="http://sodipodi.sourceforge.net/DTD/sodipodi-0.dtd" xmlns:cc="http://creativecommons.org/ns#" xmlns:svg="http://www.w3.org/2000/svg" xmlns:dc="http://purl.org/dc/elements/1.1/" xmlns:inkscape="http://www.inkscape.org/namespaces/inkscape"
	 xmlns="&ns_svg;" xmlns:xlink="&ns_xlink;" width="525" height="230.049" viewBox="-170.259 -67.24 525 230.049"
	 style="overflow:visible;enable-background:new -170.259 -67.24 525 230.049;" xml:space="preserve">
<metadata
   id="metadata14"><rdf:RDF>
          <cc:Work rdf:about=""><dc:format>image/svg+xml</dc:format><dc:type
         rdf:resource="http://purl.org/dc/dcmitype/StillImage" /><dc:title>OM MANI PADME HUM</dc:title>
         <dc:description>The mantra OM MA-NI PAD-ME HUM in Tibetan script.</dc:description>
         <dc:date>2008-10-01</dc:date>
          <dc:creator><cc:Agent><dc:title>Christopher J. Fynn</dc:title></cc:Agent></dc:creator>
          <dc:contributor><cc:Agent><dc:title>Christopher J. Fynn</dc:title></cc:Agent></dc:contributor>
          <cc:license rdf:resource="http://creativecommons.org/licenses/by-sa/3.0/" /></cc:Work>
         <cc:License rdf:about="http://creativecommons.org/licenses/by-sa/3.0/">
         <cc:permits rdf:resource="http://creativecommons.org/ns#Reproduction" /><cc:permits
         rdf:resource="http://creativecommons.org/ns#Distribution" />
         <cc:requires rdf:resource="http://creativecommons.org/ns#Notice" />
         <cc:requires rdf:resource="http://creativecommons.org/ns#Attribution" /> 
         <cc:permits rdf:resource="http://creativecommons.org/ns#DerivativeWorks" />
         <cc:requires rdf:resource="http://creativecommons.org/ns#ShareAlike" /></cc:License>
         </rdf:RDF>
</metadata>
<defs>
	
	
		<inkscape:perspective  id="perspective16" sodipodi:type="inkscape:persp3d" inkscape:persp3d-origin="262.5 : 76.682999 : 1" inkscape:vp_x="0 : 115.0245 : 1" inkscape:vp_y="0 : 1000 : 0" inkscape:vp_z="525 : 115.0245 : 1">
		</inkscape:perspective>
</defs>
<sodipodi:namedview  units="in" id="base" objecttolerance="10" inkscape:window-x="-4" inkscape:window-height="968" inkscape:current-layer="Layer_1" inkscape:window-width="1280" inkscape:zoom="0.35" inkscape:document-units="px" inkscape:cy="575.71429" bordercolor="#666666" gridtolerance="10000" showgrid="false" inkscape:cx="-75" guidetolerance="10" pagecolor="#ffffff" borderopacity="1.0" inkscape:window-y="-4" inkscape:pageopacity="0.0" inkscape:pageshadow="2">
	</sodipodi:namedview>
<g id="g4">
	<path id="path2418" d="M13.802,10.091c0.188,0,0.328,0.117,0.422,0.351c0.094,0.234,0.141,0.445,0.141,0.635
		c0,1.592-0.328,2.972-0.983,4.142c-0.655,1.17-1.474,2.199-2.456,3.088c-0.983,0.89-2.106,1.614-3.369,2.177
		c-1.264,0.563-2.457,1.029-3.58,1.403c-0.562,0.188-1.076,0.468-1.544,0.842C1.964,23.1,1.73,23.708,1.73,24.55v11.651
		c3.088,1.685,5.732,3.674,7.932,5.966c2.199,2.293,4.211,4.75,6.036,7.37c1.825,2.621,3.603,5.312,5.335,8.069
		c1.73,2.764,3.672,5.404,5.825,7.934l4.352,5.191V65.68c0-3.462-0.257-7.229-0.772-11.3c-0.514-4.071-1.006-8.025-1.474-11.862
		c-0.28-1.775-0.632-3.79-1.053-6.036s-0.89-4.396-1.403-6.458c-0.516-2.059-1.029-3.79-1.545-5.19
		c-0.515-1.404-0.959-2.105-1.333-2.106c-0.468,0.001-0.913,0.144-1.334,0.422c-0.421,0.28-0.726,0.421-0.913,0.421
		c-0.28,0-0.584-0.067-0.912-0.211c-0.327-0.14-0.49-0.396-0.49-0.771s0.14-0.702,0.42-0.982c0.281-0.278,0.516-0.516,0.703-0.702
		l9.404-9.403c0.562-0.563,1.1-0.938,1.615-1.122c0.514-0.188,0.912-0.281,1.192-0.281h6.317c0.936,0,1.404,0.468,1.404,1.404
		c0,0.187-0.164,0.701-0.492,1.544c-0.327,0.843-0.701,1.825-1.123,2.948C39,17.113,38.579,18.286,38.157,19.5
		c-0.42,1.217-0.771,2.293-1.053,3.229c-0.468,1.872-0.865,3.86-1.193,5.967c-0.327,2.105-0.49,4.328-0.49,6.67v38.742
		c0.561,0.938,0.842,2.062,0.842,3.369c0,0.468-0.305,0.866-0.912,1.193c-0.609,0.327-1.1,0.491-1.475,0.491
		c-0.468,0-0.912-0.164-1.333-0.491s-0.866-0.729-1.334-1.193L1.73,51.924c0,1.497-0.328,3.322-0.982,5.475
		c-0.655,2.152-1.686,4.212-3.088,6.18c-1.404,1.966-3.159,3.647-5.265,5.054s-4.609,2.104-7.511,2.104
		c-2.714,0-5.1-0.468-7.159-1.4c-2.059-0.938-3.79-2.199-5.194-3.79c-1.403-1.591-2.456-3.439-3.158-5.545
		c-0.701-2.106-1.053-4.329-1.053-6.668c0-2.901,0.585-5.615,1.755-8.146c1.169-2.523,2.667-4.702,4.491-6.524
		c1.826-1.825,3.861-3.252,6.107-4.282c2.246-1.028,4.445-1.544,6.598-1.544c1.404,0,2.737,0.094,4,0.281
		c1.264,0.188,2.363,0.372,3.3,0.562c1.029,0.28,2.012,0.563,2.948,0.842c0-1.31-0.281-2.667-0.843-4.067
		c-0.562-1.404-1.263-2.667-2.105-3.791c-0.843-1.123-1.755-2.062-2.737-2.811c-0.982-0.748-1.895-1.122-2.738-1.123h-9.404
		c-3.182,0.001-4.773-0.327-4.773-0.979c0-0.188,0.07-0.421,0.211-0.701c0.141-0.281,0.304-0.563,0.491-0.843l6.737-10.107h31.444
		V10.091z M-2.481,50.38c-1.029-1.217-2.457-2.34-4.282-3.369c-1.825-1.029-4.702-1.544-8.634-1.544
		c-3.93,0-6.598,0.444-8.001,1.333c-1.403,0.89-2.105,2.13-2.105,3.721c0,1.123,0.187,2.456,0.562,4
		c0.374,1.545,1.053,3.021,2.035,4.423c0.982,1.403,2.27,2.6,3.86,3.579C-17.456,63.505-15.442,64-13.01,64
		c1.966,0,3.627-0.421,4.984-1.266c1.356-0.843,2.456-1.896,3.299-3.156c0.842-1.266,1.427-2.62,1.754-4.07
		c0.328-1.451,0.492-2.737,0.492-3.86V50.38L-2.481,50.38z"/>
	<path id="path2426" d="M-62.143,10.091c0.188,0,0.328,0.117,0.422,0.351c0.094,0.234,0.141,0.445,0.141,0.635
		c0,2.992-1.006,5.312-3.019,6.946c-2.013,1.64-4.095,2.831-6.247,3.58l0.702,0.842c3.183,3.84,5.615,7.56,7.3,11.16
		c1.684,3.604,3.111,7.253,4.281,10.949c1.17,3.697,2.363,7.511,3.58,11.441c1.217,3.93,2.947,8.048,5.193,12.354l4.071,8.001
		v-8.563c0-3.463-0.257-7.254-0.772-11.371c-0.514-4.118-1.053-8.098-1.613-11.936c-0.281-1.774-0.633-3.904-1.053-6.387
		c-0.422-2.479-0.866-4.866-1.334-7.159c-0.469-2.293-0.959-4.232-1.475-5.826c-0.514-1.591-0.959-2.386-1.334-2.387
		c-0.467,0.001-0.912,0.144-1.333,0.422c-0.421,0.28-0.726,0.421-0.912,0.421c-0.28,0-0.585-0.067-0.913-0.211
		c-0.327-0.14-0.491-0.396-0.491-0.771s0.141-0.702,0.421-0.982c0.281-0.278,0.516-0.516,0.703-0.702l9.404-9.403
		c0.563-0.563,1.1-0.938,1.615-1.122c0.514-0.188,0.912-0.281,1.193-0.281h6.316c0.936,0,1.404,0.468,1.404,1.404
		c0,0.652-0.117,1.076-0.352,1.263c-0.234,0.188-0.397,0.468-0.491,0.843c-0.468,1.403-0.983,2.854-1.544,4.354
		c-0.563,1.497-1.076,3.089-1.545,4.771c-0.467,1.872-0.865,3.838-1.193,5.896c-0.326,2.059-0.49,4.258-0.49,6.598v47.167
		c0.28,0.749,0.42,1.357,0.421,1.825c-0.001,0.374-0.234,0.679-0.702,0.912c-0.468,0.231-0.842,0.352-1.123,0.352
		c-1.029,0-1.965-0.421-2.808-1.264c-0.187-0.188-1.076-1.591-2.667-4.212c-1.592-2.62-3.58-5.872-5.967-9.756
		c-2.386-3.887-5.029-8.118-7.931-12.704c-2.902-4.586-5.756-8.984-8.563-13.195c-2.808-4.212-5.428-7.955-7.861-11.229
		c-2.434-3.275-4.352-5.478-5.756-6.601c-0.655,0.748-1.427,1.64-2.316,2.667c-0.889,1.029-1.778,2.082-2.667,3.158
		c-0.89,1.076-1.685,2.13-2.387,3.159c-0.702,1.026-1.193,1.871-1.474,2.523c0.936-0.188,1.638-0.277,2.105-0.277
		c1.872,0,3.72,0.396,5.545,1.189c1.825,0.796,3.439,1.872,4.843,3.229c1.404,1.354,2.55,2.971,3.439,4.843s1.333,3.884,1.333,6.036
		c0,1.778-0.444,4.048-1.333,6.809c-0.889,2.764-2.27,5.451-4.141,8.071c-1.872,2.621-4.211,4.867-7.019,6.738
		c-2.808,1.872-6.177,2.808-10.107,2.808c-2.807,0-5.638-0.702-8.493-2.104c-2.855-1.403-5.428-3.396-7.721-5.969
		c-2.293-2.571-4.141-5.659-5.545-9.266c-1.404-3.604-2.105-7.65-2.105-12.143c0-2.717,0.351-5.662,1.053-8.847
		c0.702-3.182,1.614-6.409,2.737-9.687c0.188-0.468,0.445-1.103,0.772-1.896c0.327-0.796,0.491-1.564,0.491-2.313
		s-0.164-1.356-0.491-1.825c-0.328-0.468-0.819-0.701-1.474-0.702c-0.468,0.001-0.842,0.143-1.123,0.422
		c-0.281,0.28-0.515,0.421-0.702,0.421c-0.281,0-0.608-0.094-0.983-0.278c-0.374-0.188-0.562-0.517-0.562-0.982
		c0-0.187,0.164-0.444,0.491-0.771c0.328-0.328,0.585-0.682,0.772-1.056l6.177-8.844c0.936-1.03,1.778-1.545,2.527-1.545h14.038
		c0.187,0,0.327,0.117,0.421,0.351c0.094,0.234,0.141,0.445,0.141,0.634c0,2.716-0.819,4.798-2.457,6.245
		c-1.637,1.451-3.673,2.784-6.106,4.001c-1.403,1.029-2.69,2.437-3.86,4.214c-1.169,1.775-2.129,3.721-2.877,5.823
		c-0.749,2.105-1.333,4.328-1.755,6.668c-0.422,2.343-0.632,4.539-0.631,6.601c0,2.714,0.327,5.355,0.982,7.932
		c0.655,2.573,1.825,4.913,3.509,7.021c1.685,2.104,3.978,3.79,6.879,5.054s6.551,1.896,10.949,1.896
		c1.123,0,2.363-0.141,3.72-0.421c1.357-0.278,2.62-0.726,3.79-1.334c1.17-0.605,2.176-1.38,3.018-2.313
		c0.842-0.938,1.264-2.062,1.264-3.369c0-2.34-1.451-4.354-4.352-6.036c-2.901-1.685-7.3-2.526-13.195-2.526
		c-1.03,0-2.059,0.116-3.088,0.354c-1.03,0.231-2.105,0.538-3.229,0.912c0.374-1.313,0.819-2.646,1.333-4.001
		c0.515-1.356,1.076-2.667,1.685-3.933c0.608-1.264,1.333-2.387,2.176-3.37c0.842-0.979,1.825-1.754,2.948-2.313
		c0.842-2.714,1.848-5.358,3.018-7.932c1.17-2.574,2.597-5.077,4.282-7.514h-1.404c-3.182,0.001-4.773-0.327-4.773-0.979
		c0-0.188,0.07-0.421,0.211-0.701c0.14-0.281,0.304-0.563,0.491-0.843l6.598-10.107h26.954V10.091L-62.143,10.091z M-79.409-3.666
		c0-1.313,0.281-2.831,0.843-4.563c0.561-1.729,1.31-3.438,2.246-5.124c0.936-1.685,1.941-3.229,3.018-4.632
		c1.076-1.404,2.176-2.387,3.299-2.948c2.06-1.123,4.703-2.176,7.932-3.155c3.229-0.983,6.715-1.919,10.459-2.812
		c3.743-0.889,7.604-1.824,11.581-2.807c3.977-0.983,7.791-2.083,11.44-3.299c0.843-0.281,1.709-0.702,2.598-1.267
		c0.889-0.562,1.754-1.123,2.597-1.685c0.843-0.563,1.614-1.053,2.316-1.478c0.702-0.421,1.192-0.631,1.474-0.631
		c0.562,0,0.842,0.327,0.843,0.982c-0.001,1.685-0.983,3.509-2.948,5.475s-4.375,3.907-7.229,5.826
		c-2.854,1.918-5.896,3.673-9.124,5.264c-3.229,1.594-6.107,2.811-8.634,3.65c-2.62,0.842-5.639,1.474-9.055,1.896
		c-3.416,0.423-6.645,1.028-9.687,1.824c-3.041,0.796-5.615,1.941-7.721,3.439c-2.105,1.497-3.158,3.743-3.158,6.737
		c0,0.747,0.047,1.729,0.14,2.945c0.094,1.218,0.188,2.34,0.281,3.369c0,0.375,0.07,0.728,0.21,1.053
		c0.14,0.328,0.21,0.585,0.21,0.772c0,1.123-0.795,1.685-2.386,1.685c-0.468,0-0.983-0.231-1.544-0.701
		c-0.561-0.469-1.17-1.027-1.825-1.686c-0.655-0.655-1.264-1.31-1.825-1.965s-1.029-1.17-1.404-1.545
		c-1.685-1.687-3.556-3.462-5.615-5.334c-2.059-1.872-4.234-3.604-6.527-5.193c-2.293-1.592-4.68-2.925-7.159-4.001
		c-2.48-1.076-4.89-1.614-7.23-1.615c-0.655,0.001-1.333,0.212-2.035,0.635c-0.702,0.422-1.146,0.632-1.333,0.632
		c-0.375,0-0.655-0.143-0.842-0.421c-0.188-0.28-0.281-0.563-0.281-0.846c0-0.374,0.281-1.236,0.842-2.597
		c0.561-1.354,1.287-2.784,2.176-4.281c0.889-1.497,1.895-2.831,3.018-4.001c1.123-1.17,2.199-1.755,3.229-1.755
		c2.34,0,4.586,0.702,6.738,2.105c2.152,1.401,4.188,3.157,6.106,5.265s3.697,4.398,5.334,6.879
		c1.638,2.479,3.112,4.796,4.422,6.948l4.211,7.02L-79.409-3.666L-79.409-3.666z M-79.549-54.624
		c1.404,0.001,2.901,0.258,4.492,0.771c1.591,0.518,3.088,1.267,4.492,2.246c1.403,0.982,2.573,2.226,3.51,3.723
		c0.936,1.495,1.403,3.229,1.403,5.191c0,1.403-0.327,3.089-0.982,5.054c-0.655,1.968-1.591,3.86-2.808,5.688
		c-1.217,1.824-2.691,3.369-4.422,4.632c-1.731,1.264-3.627,1.896-5.686,1.896c-1.591,0-3.252-0.211-4.984-0.635
		c-1.731-0.421-3.322-1.1-4.772-2.032c-1.45-0.938-2.644-2.105-3.58-3.513c-0.936-1.4-1.403-3.088-1.403-5.054
		c0-1.217,0.351-2.831,1.053-4.843c0.702-2.015,1.685-4.001,2.948-5.966c1.264-1.969,2.808-3.65,4.633-5.058
		C-83.831-53.919-81.795-54.623-79.549-54.624L-79.549-54.624L-79.549-54.624z M-87.27-47.324c-0.188,0.468-0.398,1.123-0.632,1.966
		c-0.234,0.842-0.351,1.45-0.351,1.824c0,1.404,0.491,2.784,1.474,4.142c0.982,1.357,2.246,2.574,3.79,3.649
		c1.544,1.077,3.229,1.942,5.054,2.598c1.825,0.656,3.579,0.982,5.265,0.982c0.28-0.468,0.584-1.076,0.912-1.825
		c0.327-0.748,0.491-1.497,0.491-2.246c0-1.497-0.538-2.897-1.614-4.211c-1.076-1.311-2.41-2.479-4.001-3.51
		c-1.591-1.029-3.322-1.848-5.194-2.456S-85.679-47.324-87.27-47.324L-87.27-47.324z"/>
	<path id="path2414" d="M91.061,10.091c0.187,0,0.327,0.117,0.421,0.351c0.094,0.234,0.141,0.445,0.141,0.635
		c0,1.775-0.445,3.3-1.334,4.563s-1.989,2.339-3.299,3.229c-1.311,0.89-2.714,1.612-4.211,2.177
		c-1.498,0.562-2.855,0.979-4.071,1.263c-2.995,1.03-5.077,2.714-6.247,5.054c-1.17,2.343-1.848,4.729-2.035,7.159
		c1.777-0.748,3.649-1.354,5.615-1.825c1.965-0.468,4.07-0.698,6.316-0.698c3.182,0,5.92,0.488,8.213,1.474
		c2.292,0.984,4.164,2.293,5.615,3.931c1.45,1.641,2.526,3.533,3.229,5.688c0.7,2.15,1.053,4.444,1.053,6.878
		c0,2.809-0.397,5.546-1.192,8.213s-1.965,5.077-3.51,7.229c-1.545,2.15-3.464,3.885-5.757,5.191
		c-2.292,1.313-4.889,1.966-7.791,1.966c-3.088,0-5.614-0.815-7.58-2.457c-1.965-1.638-3.51-3.603-4.633-5.896
		s-1.918-4.702-2.386-7.229c-0.468-2.523-0.749-4.68-0.843-6.457c-1.403,1.594-2.667,3.205-3.789,4.846
		c-1.124,1.638-1.92,3.019-2.387,4.141c-3.183,7.206-5.405,14.764-6.668,22.672c-1.264,7.907-2.176,15.745-2.738,23.516
		l-1.824,25.688c0,0.375-0.234,0.749-0.702,1.123c-0.468,0.375-0.937,0.563-1.403,0.563c-0.469,0-0.843-0.095-1.123-0.278
		c-0.281-0.188-0.422-0.655-0.422-1.404V100.64c0-6.458,0.352-12.892,1.053-19.303c0.702-6.41,1.872-12.423,3.51-18.038
		c1.638-5.615,3.744-10.692,6.316-15.231c2.574-4.539,5.686-8.165,9.336-10.879l-0.702-8.704c0-0.468-0.047-1.026-0.14-1.685
		c-0.094-0.655-0.211-1.286-0.352-1.896c-0.141-0.604-0.375-1.119-0.701-1.544c-0.328-0.421-0.727-0.631-1.193-0.632h-5.475
		c-3.183,0.001-4.773-0.327-4.773-0.979c0-0.188,0.07-0.421,0.211-0.701c0.14-0.281,0.304-0.563,0.49-0.843l6.738-10.107h31.024
		V10.091L91.061,10.091z M76.041,44.625c-0.749,0-1.568,0.258-2.457,0.771c-0.889,0.517-1.708,1.056-2.457,1.614l0.281,2.105
		c0.188,1.869,0.515,3.79,0.982,5.756c0.469,1.965,1.146,3.743,2.035,5.334c0.89,1.591,1.966,2.898,3.229,3.931
		c1.263,1.029,2.831,1.544,4.702,1.544c4.398,0,7.348-0.748,8.844-2.246c1.498-1.497,2.246-3.415,2.246-5.755
		s-0.467-4.352-1.403-6.036c-0.937-1.686-2.199-3.042-3.79-4.068c-1.592-1.029-3.439-1.778-5.545-2.246
		C80.602,44.858,78.38,44.625,76.041,44.625L76.041,44.625z M100.887,7.286c-2.902-2.994-5.896-5.969-8.986-8.914
		c-3.089-2.948-5.989-5.919-8.703-8.914c-1.497-1.688-3.322-3.299-5.476-4.846c-2.152-1.544-4.445-2.925-6.878-4.142
		c-2.433-1.216-4.937-2.199-7.511-2.947c-2.572-0.749-4.982-1.123-7.229-1.123c-1.123,0-2.246,0.397-3.369,1.192
		c-1.123,0.796-1.686,1.755-1.686,2.878c0,0.938,0.422,1.872,1.264,2.808c0.843,0.938,1.872,1.758,3.089,2.457
		c1.217,0.702,2.526,1.287,3.931,1.758c1.403,0.468,2.667,0.698,3.79,0.698c0.749,0,1.544-0.277,2.386-0.842
		c0.843-0.562,1.498-0.842,1.966-0.843c0.374,0.001,0.562,0.188,0.562,0.562c0,1.313-0.748,3.37-2.246,6.18
		c-0.936,1.685-2.129,3.253-3.58,4.703c-1.449,1.447-3.111,2.176-4.982,2.176c-1.217,0-2.598-0.327-4.142-0.982
		c-1.544-0.654-3.019-1.497-4.422-2.524c-1.403-1.029-2.573-2.199-3.51-3.512c-0.936-1.311-1.403-2.621-1.403-3.931
		c0-1.685,0.468-3.907,1.403-6.668c0.937-2.761,2.2-5.475,3.79-8.143c1.592-2.667,3.439-4.963,5.545-6.881
		c2.105-1.919,4.375-2.878,6.809-2.878c1.217,0,2.645,0.05,4.281,0.143c1.639,0.095,3.275,0.278,4.914,0.562
		c1.638,0.281,3.182,0.729,4.633,1.334c1.45,0.608,2.689,1.478,3.719,2.6c2.434,2.715,4.329,5.449,5.686,8.213
		c1.357,2.761,2.925,5.775,4.703,9.054c0.936,1.872,2.176,3.791,3.721,5.756c1.543,1.966,3.041,3.86,4.492,5.688
		c1.448,1.822,2.688,3.438,3.719,4.843c1.031,1.404,1.545,2.434,1.545,3.089C102.711,6.816,102.104,7.286,100.887,7.286
		L100.887,7.286z"/>
	<path id="path2408" d="M142.11,10.091c0.188,0,0.326,0.117,0.42,0.351c0.096,0.234,0.143,0.445,0.143,0.635
		c0,1.592-0.354,2.992-1.053,4.212c-0.701,1.217-1.594,2.27-2.668,3.155c-1.076,0.893-2.293,1.614-3.648,2.179
		c-1.356,0.562-2.691,0.98-4.002,1.264c-0.936,0.188-2.27,0.937-4,2.246c-1.729,1.31-3.463,2.948-5.193,4.913
		c-1.73,1.966-3.229,4.142-4.49,6.524c-1.266,2.39-1.896,4.75-1.896,7.093c0.748-0.375,1.592-0.702,2.526-0.983
		c0.937-0.28,1.965-0.421,3.088-0.421c5.615,0,10.226,0.819,13.828,2.457s6.646,3.603,9.125,5.896s4.517,4.656,6.104,7.092
		c1.592,2.434,3.183,4.396,4.771,5.896l5.192,5.054v-1.966c0-3.462-0.258-7.253-0.771-11.37c-0.517-4.117-1.053-8.096-1.612-11.933
		c-0.279-1.778-0.634-3.79-1.056-6.036c-0.42-2.246-0.862-4.375-1.332-6.387c-0.469-2.016-0.961-3.724-1.476-5.124
		c-0.516-1.404-0.959-2.105-1.334-2.106c-0.469,0.001-0.911,0.144-1.334,0.422c-0.42,0.28-0.726,0.422-0.911,0.422
		c-0.281,0-0.585-0.068-0.912-0.212c-0.328-0.14-0.492-0.396-0.492-0.771s0.144-0.702,0.422-0.982
		c0.281-0.278,0.517-0.516,0.701-0.701l9.406-9.404c0.561-0.563,1.1-0.938,1.612-1.122c0.517-0.188,0.914-0.281,1.192-0.281h6.317
		c0.937,0,1.402,0.468,1.402,1.403c0,0.654-0.117,1.077-0.353,1.264c-0.231,0.188-0.396,0.468-0.492,0.843
		c-0.467,1.403-0.979,2.854-1.545,4.354c-0.562,1.497-1.076,3.089-1.543,4.771c-0.47,1.872-0.863,3.839-1.19,5.896
		c-0.328,2.058-0.492,4.258-0.492,6.598v35.518c0.281,0.844,0.422,1.776,0.422,2.809c0,0.563-0.188,1.1-0.563,1.614
		s-0.891,0.771-1.545,0.771c-0.748,0-1.592-0.515-2.524-1.544c-1.028-1.217-2.735-2.972-5.123-5.265
		c-2.387-2.293-5.289-4.563-8.703-6.812c-3.416-2.244-7.254-4.211-11.512-5.896c-4.261-1.688-8.82-2.526-13.688-2.527
		c-1.966,0.001-3.625,0.117-4.981,0.354c-1.354,0.23-2.574,0.515-3.648,0.842c-1.075,0.328-2.081,0.655-3.02,0.98
		c-0.937,0.327-1.873,0.634-2.81,0.912c0.375-1.965,0.728-3.53,1.053-4.702c0.328-1.169,0.634-2.15,0.914-2.945
		c0.279-0.796,0.584-1.478,0.912-2.036c0.326-0.563,0.679-1.216,1.054-1.965c0.278-4.586,1.217-8.75,2.807-12.494
		c1.595-3.743,3.229-7.065,4.914-9.967h-2.81c-1.59,0-2.76-0.143-3.508-0.421c-0.75-0.28-1.125-0.518-1.125-0.702
		c0-0.188,0.069-0.421,0.211-0.701c0.142-0.281,0.306-0.563,0.492-0.843l6.737-10.107h23.588v-0.011H142.11z M220.299,10.091
		c0.188,0,0.328,0.117,0.423,0.351c0.094,0.234,0.141,0.445,0.141,0.635c0,2.34-0.75,4.232-2.243,5.686
		c-1.498,1.451-3.229,2.597-5.193,3.439c-1.967,0.843-3.885,1.427-5.756,1.755c-1.873,0.327-3.185,0.538-3.935,0.632
		c-2.991,0.28-5.545,0.979-7.647,2.104c-2.104,1.123-3.858,2.39-5.264,3.79c-1.404,1.404-2.479,2.854-3.229,4.354
		s-1.312,2.808-1.687,3.931c0.75-0.374,1.709-0.701,2.879-0.979c1.17-0.28,2.129-0.423,2.877-0.423c4.117,0,7.721,0.163,10.812,0.49
		c3.09,0.327,5.803,0.818,8.144,1.477c2.34,0.653,4.353,1.475,6.036,2.457c1.685,0.979,3.136,2.082,4.353,3.299
		c2.619,2.808,4.818,6.411,6.599,10.809c1.776,4.399,3.229,9.289,4.353,14.67c1.123,5.382,1.987,11.113,2.601,17.196
		c0.604,6.084,1.146,12.213,1.61,18.39l0.843,11.936c0,0.374-0.142,0.771-0.421,1.19c-0.278,0.421-0.563,0.633-0.842,0.633
		c-0.469,0-0.961-0.188-1.476-0.563c-0.517-0.374-0.817-0.795-0.912-1.263l-2.245-11.09c-1.031-4.961-1.99-9.827-2.88-14.603
		c-0.889-4.771-1.823-9.241-2.807-13.406c-0.981-4.163-2.082-7.954-3.3-11.368c-1.217-3.415-2.668-6.246-4.353-8.492
		c-2.34-3.185-5.639-5.545-9.897-7.09c-4.258-1.546-9.146-2.315-14.668-2.315c-1.123,0-2.479,0.116-4.071,0.351
		c-1.591,0.234-3.205,0.491-4.843,0.771c-1.639,0.281-3.274,0.586-4.914,0.913c-1.637,0.327-3.063,0.585-4.28,0.771
		c-0.47,0-0.701-0.231-0.701-0.701c0-0.563,0.187-1.285,0.562-2.177c0.375-0.89,0.892-1.872,1.545-2.946
		c0.654-1.075,1.38-2.151,2.179-3.229c0.795-1.076,1.61-2.035,2.457-2.878c0.748-2.152,1.637-4.633,2.666-7.44
		c1.026-2.807,2.06-5.237,3.088-7.3c0-0.561-0.373-0.936-1.123-1.123h-2.524c-1.687,0.001-2.832-0.115-3.438-0.351
		c-0.608-0.233-0.914-0.444-0.914-0.632c0-0.655,0.095-1.17,0.281-1.544l6.737-10.107L220.299,10.091L220.299,10.091z"/>
	<path id="path2406" d="M195.313,74.104c0.188,0,0.326,0.117,0.42,0.354c0.096,0.23,0.143,0.441,0.143,0.632
		c0,2.433-0.68,4.396-2.035,5.896c-1.357,1.498-2.971,2.667-4.844,3.513c-1.777,0.842-2.666,2.433-2.666,4.771v8.984
		c2.713,1.027,4.959,2.573,6.736,4.632c1.777,2.06,3.438,4.376,4.98,6.949c1.547,2.57,3.184,5.287,4.914,8.142
		c1.729,2.854,3.857,5.545,6.389,8.072l3.088,3.088v-4.07c0-2.524-0.188-5.521-0.563-8.981c-0.375-3.463-0.75-6.553-1.123-9.268
		c-0.188-1.498-0.518-3.393-0.98-5.686c-0.469-2.293-0.959-4.492-1.477-6.602c-0.518-2.104-1.027-3.93-1.545-5.475
		c-0.516-1.544-0.912-2.315-1.191-2.315c-0.469,0-0.912,0.143-1.332,0.424c-0.422,0.277-0.729,0.421-0.914,0.421
		c-0.277,0-0.584-0.07-0.912-0.211c-0.324-0.143-0.488-0.397-0.488-0.771s0.141-0.702,0.42-0.98c0.279-0.28,0.516-0.517,0.703-0.701
		l8.701-9.405c0.563-0.562,1.102-0.937,1.613-1.123c0.518-0.188,0.914-0.281,1.191-0.281h6.316c0.938,0,1.402,0.471,1.402,1.404
		c0,0.654-0.115,1.076-0.35,1.263c-0.234,0.188-0.398,0.472-0.492,0.846c-0.467,1.4-0.982,2.854-1.543,4.352
		c-0.563,1.497-1.076,3.089-1.545,4.772c-0.471,1.871-0.865,3.904-1.193,6.104c-0.328,2.199-0.49,4.468-0.49,6.811v33.13
		c0.094,0.187,0.188,0.374,0.279,0.562c0.094,0.188,0.141,0.374,0.141,0.563c0,0.468-0.164,0.936-0.488,1.4
		c-0.328,0.471-0.682,0.702-1.055,0.702c-0.375,0-0.818-0.164-1.334-0.491c-0.516-0.325-1.1-0.726-1.756-1.19l-26.107-20.215
		c0,1.027-0.26,2.34-0.771,3.931c-0.514,1.591-1.354,3.112-2.523,4.563c-1.172,1.45-2.646,2.716-4.424,3.79
		c-1.777,1.075-3.934,1.614-6.459,1.614c-2.338,0-4.467-0.491-6.387-1.475c-1.918-0.982-3.533-2.271-4.844-3.86
		c-1.313-1.591-2.34-3.393-3.09-5.403c-0.748-2.014-1.123-4.096-1.123-6.246c0-2.245,0.492-4.397,1.477-6.457
		c0.98-2.062,2.246-3.86,3.791-5.404c1.543-1.544,3.32-2.761,5.334-3.649c2.012-0.888,4.094-1.334,6.246-1.334
		c2.15,0,3.932,0.308,5.334,0.912c1.402,0.608,2.479,1.055,3.229,1.334v-0.842c0-0.843-0.232-1.778-0.701-2.809
		c-0.467-1.029-1.055-1.988-1.754-2.879c-0.703-0.891-1.545-1.639-2.527-2.244c-0.98-0.608-1.939-0.913-2.877-0.913h-6.459
		c-3.182,0-4.771-0.327-4.771-0.982c0-0.187,0.07-0.421,0.212-0.701c0.139-0.279,0.303-0.562,0.489-0.843l6.737-10.105h24.847
		v-0.017H195.313z M182.117,110.745c-0.748-0.654-1.802-1.477-3.158-2.456c-1.354-0.982-3.158-1.477-5.403-1.477
		c-1.123,0-2.341,0.047-3.647,0.143c-1.312,0.094-2.552,0.278-3.722,0.562s-2.129,0.632-2.879,1.053
		c-0.748,0.425-1.123,0.96-1.123,1.614c0,1.03,0.233,2.199,0.703,3.51c0.467,1.313,1.122,2.527,1.965,3.649
		c0.842,1.123,1.871,2.083,3.088,2.879c1.218,0.795,2.621,1.192,4.211,1.192c3.744,0,6.343-1.103,7.791-3.302
		C181.391,115.916,182.117,113.458,182.117,110.745L182.117,110.745L182.117,110.745z M166.395-27.109
		c0.563-0.843,1.217-1.45,1.965-1.825c0.748-0.374,1.498-0.562,2.246-0.562c4.492,0,8.682,1.1,12.563,3.299
		c3.885,2.199,7.273,4.656,10.178,7.37c2.715,2.62,4.891,5.101,6.527,7.438c1.639,2.343,2.734,3.887,3.299,4.635l6.877,8.704
		c0.75,1.026,1.383,1.918,1.896,2.667c0.515,0.749,0.771,1.311,0.771,1.685c0,0.843-0.422,1.264-1.264,1.264
		c-0.47,0-0.938-0.211-1.404-0.632s-0.981-0.912-1.543-1.474c-3.274-3.65-6.879-6.855-10.813-9.616
		c-3.93-2.761-7.903-5.101-11.932-7.02c-4.021-1.918-7.908-3.349-11.65-4.281c-3.741-0.938-7.021-1.403-9.823-1.403
		c-0.375,0-0.847,0.354-1.404,1.053c-0.563,0.702-1.075,1.056-1.545,1.056c-0.467,0-0.817-0.211-1.053-0.635
		c-0.236-0.421-0.354-0.909-0.354-1.474c0-0.281,0.188-0.702,0.563-1.264c0.375-0.563,0.795-1.217,1.264-1.966L166.395-27.109
		L166.395-27.109z"/>
	<path id="path2398" d="M296.807,116.639c-0.471-1.123-1.146-2.199-2.035-3.229c-0.893-1.03-1.988-1.969-3.299-2.811
		c-1.313-0.843-2.902-1.521-4.771-2.036c-1.871-0.515-4.07-0.771-6.6-0.771c-1.027,0-2.129,0.187-3.3,0.562
		c-1.171,0.374-2.224,0.795-3.157,1.266c-0.654,0.375-1.191,0.605-1.613,0.702c-0.424,0.094-0.727,0.141-0.912,0.141
		c-0.281,0-0.422-0.188-0.422-0.563c0-1.217,0.375-2.55,1.121-4.001c0.75-1.447,1.826-2.781,3.229-4.001
		c1.404-1.216,3.092-2.223,5.057-3.018c1.965-0.796,4.117-1.193,6.457-1.193c0.469-0.749,1.191-1.824,2.176-3.229
		c0.981-1.405,1.475-2.62,1.475-3.65c0-1.4-0.539-2.523-1.613-3.369c-1.076-0.842-2.41-1.497-4-1.965
		c-1.594-0.468-3.322-0.796-5.195-0.979c-1.869-0.188-3.604-0.281-5.191-0.281c-0.938,0-2.035,0.047-3.299,0.141
		c-1.266,0.097-2.457,0.327-3.58,0.702c-1.123,0.374-2.082,0.865-2.877,1.474c-0.795,0.609-1.191,1.477-1.191,2.6
		c0,1.498,0.232,2.831,0.699,4.001c0.471,1.17,0.98,2.223,1.545,3.159c0.563,0.936,1.076,1.801,1.547,2.597
		c0.467,0.795,0.699,1.521,0.699,2.176c0,0.749-0.328,1.614-0.98,2.6c-0.656,0.98-1.404,1.896-2.246,2.734
		c-0.842,0.844-1.709,1.567-2.598,2.177c-0.891,0.608-1.566,0.912-2.035,0.912c-0.188,0-0.281-0.278-0.281-0.843
		c0-0.374,0.021-0.959,0.07-1.755c0.047-0.795,0.068-1.474,0.068-2.035c0-0.654-0.164-1.403-0.488-2.246
		c-0.328-0.843-0.703-1.729-1.123-2.667c-0.424-0.936-0.799-1.919-1.123-2.946c-0.328-1.028-0.492-2.014-0.492-2.947
		c0-2.246,0.539-4.563,1.615-6.948c1.074-2.385,2.455-4.539,4.141-6.458c1.684-1.918,3.58-3.485,5.686-4.702
		c2.107-1.217,4.188-1.825,6.246-1.825h9.547c2.434-2.245,4.519-4.489,6.246-6.735c1.73-2.246,2.6-4.772,2.6-7.58
		c0-2.152-0.471-4.145-1.402-5.966c-0.938-1.825-2.178-3.416-3.723-4.773c-1.543-1.354-3.32-2.433-5.334-3.229
		c-2.014-0.797-4.047-1.192-6.104-1.192c-3.09,0-5.545,0.305-7.371,0.913c-1.822,0.605-3.347,2.409-4.563,5.403
		c0.471,0.563,1.029,1.401,1.688,2.524c0.653,1.123,1.311,2.271,1.965,3.439s1.24,2.27,1.754,3.299
		c0.517,1.028,0.867,1.729,1.056,2.104c0.653,1.22,0.981,2.063,0.981,2.527c0,0.563-0.281,0.842-0.844,0.842
		c-0.748,0-1.379-0.163-1.896-0.49c-0.515-0.325-1.101-0.816-1.754-1.475c-1.687-1.591-3.321-3.205-4.914-4.843
		c-1.592-1.64-3.229-3.136-4.914-4.492c-1.685-1.356-3.438-2.479-5.265-3.369c-1.823-0.89-3.766-1.334-5.825-1.334
		c-2.151,0-4.095,0.143-5.824,0.421c-1.729,0.281-3.111,0.655-4.144,1.123c0.563-1.965,1.218-4.117,1.968-6.457
		c0.748-2.34,1.918-4.352,3.508-6.036c2.151-2.524,4.425-5.218,6.812-8.069c2.388-2.854,4.702-5.498,6.947-7.935h-7.021
		c-2.341,0.001-3.511-0.327-3.511-0.979c0-0.188,0.069-0.421,0.211-0.701c0.142-0.281,0.306-0.563,0.492-0.843l6.737-10.107h36.92
		c0.188,0,0.326,0.117,0.421,0.353c0.094,0.232,0.141,0.443,0.141,0.633c0,2.246-0.653,4.117-1.965,5.613s-2.832,2.69-4.563,3.579
		c-1.729,0.892-3.416,1.521-5.053,1.896c-1.639,0.374-2.785,0.562-3.438,0.561c-1.873,0.097-3.933,0.445-6.179,1.057
		c-2.246,0.606-4.069,1.333-5.475,2.176c-2.809,1.591-5.641,3.484-8.492,5.685c-2.855,2.2-5.498,4.329-7.933,6.391h0.7
		c2.811,0,5.334,0.979,7.58,2.946c2.246,1.966,4.354,4.116,6.316,6.456c0.654-2.434,1.729-4.606,3.229-6.524
		c1.498-1.919,3.205-3.533,5.123-4.846c1.92-1.311,3.908-2.313,5.968-3.019c2.06-0.703,4.069-1.053,6.034-1.053
		c2.811,0,5.479,0.515,8.003,1.544c2.526,1.027,4.771,2.479,6.737,4.352c1.965,1.872,3.512,4.097,4.635,6.668
		c1.121,2.574,1.686,5.404,1.686,8.493c0,4.681-1.1,8.656-3.299,11.933c-2.199,3.275-4.938,6.316-8.214,9.125h1.966
		c1.027,0,1.73,0.143,2.104,0.424c0.375,0.277,0.563,0.562,0.563,0.842s-0.069,0.538-0.211,0.771
		c-0.144,0.232-0.261,0.396-0.354,0.49l-1.824,2.246c0.281,0.188,0.584,0.608,0.912,1.264c0.328,0.654,0.634,1.403,0.912,2.245
		c0.28,0.844,0.491,1.688,0.633,2.527c0.144,0.841,0.209,1.591,0.211,2.246c-0.002,1.965-0.653,4.001-1.967,6.104
		c-1.312,2.105-2.522,3.813-3.646,5.124c1.87,0.374,3.414,1.146,4.631,2.315c1.218,1.169,2.199,2.551,2.949,4.142
		c0.747,1.592,1.264,3.322,1.543,5.194c0.281,1.871,0.469,3.696,0.563,5.475c0.281-0.094,0.796-0.141,1.546-0.141
		c2.993,0,5.591,1.053,7.79,3.158c2.197,2.104,3.299,5.265,3.299,9.476c0,2.811-0.607,5.615-1.824,8.423
		c-1.217,2.811-2.83,5.336-4.844,7.581c-2.014,2.246-4.281,4.07-6.809,5.478c-2.526,1.4-5.104,2.104-7.724,2.104
		c-2.061,0-4.096-0.632-6.104-1.896c-2.013-1.266-4.048-2.9-6.104-4.913c-2.062-2.014-4.188-4.328-6.39-6.948
		c-2.199-2.621-4.539-5.265-7.019-7.932s-5.125-5.268-7.935-7.791c-2.81-2.527-5.851-4.773-9.125-6.738
		c-0.937-0.563-2.129-1.313-3.58-2.246c-1.448-0.935-2.36-1.591-2.733-1.966c-0.375-0.374-0.563-0.701-0.563-0.982
		c0-0.277,0.095-0.584,0.279-0.911c0.188-0.326,0.563-0.489,1.123-0.489c0.373,0,0.938,0.211,1.686,0.632
		c0.75,0.421,1.73,0.864,2.949,1.333c6.361,2.714,11.813,5.826,16.354,9.336c4.538,3.509,8.653,6.854,12.354,10.037
		c3.694,3.182,7.183,5.872,10.457,8.069c3.274,2.198,6.832,3.301,10.67,3.301c0.653,0,1.45-0.07,2.388-0.212
		c0.936-0.142,1.824-0.443,2.666-0.911c0.844-0.47,1.566-1.123,2.176-1.966c0.609-0.845,0.912-1.968,0.914-3.368
		c-0.002-1.872-0.914-3.65-2.738-5.335c-1.824-1.687-3.908-2.526-6.245-2.526c-2.062,0-3.649,0.094-4.772,0.28
		c-1.122,0.188-2.013,0.375-2.668,0.562c-0.652,0.188-1.146,0.375-1.474,0.563c-0.328,0.188-0.681,0.279-1.054,0.279
		c-0.938,0-1.403-0.232-1.403-0.7c0-0.188,0.142-0.491,0.42-0.912c0.281-0.423,0.518-0.729,0.703-0.913L296.807,116.639
		L296.807,116.639z M270.555-38.757c1.217,0,2.646,0.278,4.281,0.842c1.639,0.562,3.184,1.334,4.632,2.313
		c1.45,0.982,2.669,2.152,3.649,3.513c0.98,1.355,1.476,2.878,1.476,4.563c0,1.123-0.233,2.573-0.702,4.354
		c-0.469,1.775-1.238,3.51-2.313,5.191c-1.076,1.687-2.527,3.135-4.354,4.354c-1.824,1.217-4.049,1.821-6.666,1.821
		c-1.498,0-3.064-0.21-4.703-0.632c-1.641-0.421-3.111-1.052-4.422-1.895c-1.313-0.842-2.41-1.896-3.301-3.158
		c-0.891-1.264-1.334-2.737-1.334-4.422c0-1.966,0.352-3.954,1.055-5.967c0.701-2.015,1.686-3.813,2.945-5.404
		c1.264-1.591,2.738-2.901,4.424-3.931C266.908-38.246,268.684-38.757,270.555-38.757L270.555-38.757z M263.397-32.163
		c-0.094,0.468-0.188,0.889-0.279,1.264c-0.188,0.938-0.281,1.778-0.281,2.526c0,1.311,0.445,2.551,1.334,3.721
		c0.889,1.169,2.012,2.199,3.369,3.088c1.355,0.893,2.854,1.614,4.492,2.176c1.639,0.563,3.203,0.846,4.701,0.846
		c0.188,0,0.516-0.188,0.98-0.563c0.471-0.374,0.701-1.169,0.701-2.386s-0.49-2.457-1.475-3.72c-0.98-1.267-2.223-2.41-3.721-3.439
		s-3.135-1.872-4.914-2.526C266.533-31.833,264.893-32.163,263.397-32.163L263.397-32.163L263.397-32.163z M243.883-16.019
		c0.188,0,0.517,0.144,0.982,0.421c0.75,0.563,1.497,1.076,2.245,1.544c0.75,0.472,1.498,0.938,2.246,1.404
		c3.933,2.437,7.582,4.328,10.951,5.688c3.368,1.354,6.457,2.032,9.264,2.032c2.996,0,6.457-0.535,10.39-1.611
		c3.931-1.076,7.675-3.064,11.229-5.966c0.188-0.188,0.49-0.491,0.912-0.913c0.422-0.421,0.842-0.818,1.265-1.193
		c0.422-0.374,0.817-0.701,1.192-0.981c0.375-0.278,0.653-0.422,0.842-0.422c0.188,0,0.328,0.144,0.423,0.422
		c0.094,0.28,0.141,0.563,0.141,0.845c0,0.468-0.422,1.264-1.264,2.386c-0.843,1.123-1.451,1.919-1.826,2.387
		c-2.246,3.089-4.353,5.615-6.315,7.581c-1.965,1.965-3.858,3.486-5.687,4.563c-1.824,1.077-3.649,1.824-5.476,2.246
		c-1.823,0.422-3.769,0.632-5.826,0.632c-2.151,0-4.163-0.188-6.034-0.563c-1.873-0.374-3.722-1.123-5.545-2.246
		c-1.826-1.123-3.675-2.667-5.546-4.632c-1.872-1.966-3.838-4.492-5.896-7.581c-0.375-0.562-0.98-1.38-1.822-2.457
		c-0.846-1.073-1.266-1.985-1.266-2.734c0-0.188,0.047-0.374,0.143-0.563C243.696-15.923,243.791-16.019,243.883-16.019
		L243.883-16.019L243.883-16.019z"/>
</g>
</svg>
